# WaveFront *.obj file (generated by Autodesk ATF)

mtllib G_BUKV2.mtl

g Body1

v 0.150000 -0.067649 -0.032865
v 0.150000 -0.067649 -0.168541
v 0.350000 -0.067649 -0.168541
v 0.350000 -0.067649 -0.032865
v 0.350000 0.100000 -0.168541
v 0.350000 0.100000 -0.032865
v 0.150000 -0.250000 -0.032865
v 0.150000 -0.250000 0.131459
v 0.150000 -0.400000 0.131459
v 0.150000 -0.400000 -0.168541
v 0.000000 -0.250000 -0.032865
v 0.000000 0.100000 -0.032865
v 0.000000 0.100000 -0.168541
v 0.000000 -0.400000 -0.168541
v 0.000000 -0.400000 0.131459
v 0.000000 -0.250000 0.131459
vt -0.000000 0.000000 0.000000
vt 13.567648 0.000000 0.000000
vt -0.000000 20.000000 0.000000
vt 13.567648 20.000000 0.000000
vt -6.783824 -8.382467 0.000000
vt 6.783824 -8.382467 0.000000
vt -6.783824 8.382467 0.000000
vt 6.783824 8.382467 0.000000
vt 16.432352 33.235066 0.000000
vt 16.432352 15.000000 0.000000
vt 30.000000 33.235066 0.000000
vt 30.000000 0.000000 0.000000
vt 0.000000 0.000000 0.000000
vt 0.000000 15.000000 0.000000
vt 15.000000 0.000000 0.000000
vt 15.000000 18.235066 0.000000
vt 0.000000 0.000000 0.000000
vt 0.000000 35.000000 0.000000
vt 35.000000 35.000000 0.000000
vt 35.000000 18.235066 0.000000
vt -6.783824 -7.500000 0.000000
vt 6.783824 -7.500000 0.000000
vt -6.783824 27.500000 0.000000
vt 6.783824 27.500000 0.000000
vt 0.000000 0.000000 0.000000
vt 15.000000 0.000000 0.000000
vt 0.000000 33.235066 0.000000
vt 15.000000 50.000000 0.000000
vt -20.000000 50.000000 0.000000
vt -20.000000 33.235066 0.000000
vt 0.000000 0.000000 0.000000
vt 15.000000 0.000000 0.000000
vt 0.000000 15.000000 0.000000
vt 15.000000 15.000000 0.000000
vt 0.000000 50.000000 0.000000
vt 0.000000 0.000000 0.000000
vt 13.567648 15.000000 0.000000
vt 30.000000 0.000000 0.000000
vt 30.000000 15.000000 0.000000
vt 13.567648 50.000000 0.000000
vt -1.432352 -7.500000 0.000000
vt 15.000000 -7.500000 0.000000
vt -1.432352 7.500000 0.000000
vt 15.000000 7.500000 0.000000
vt 7.500000 15.000000 0.000000
vt -7.500000 15.000000 0.000000
vt 7.500000 -15.000000 0.000000
vt -7.500000 -15.000000 0.000000
vn 0.000000 -100.000000 0.000000
vn 0.000000 -100.000000 0.000000
vn 0.000000 -100.000000 0.000000
vn 0.000000 -100.000000 0.000000
vn 100.000000 0.000000 0.000000
vn 100.000000 0.000000 0.000000
vn 100.000000 0.000000 0.000000
vn 100.000000 0.000000 0.000000
vn 100.000000 0.000000 0.000000
vn 100.000000 0.000000 0.000000
vn 100.000000 0.000000 0.000000
vn 100.000000 0.000000 0.000000
vn 100.000000 0.000000 0.000000
vn 100.000000 0.000000 0.000000
vn 0.000000 0.000000 100.000000
vn 0.000000 0.000000 100.000000
vn 0.000000 0.000000 100.000000
vn 0.000000 0.000000 100.000000
vn 0.000000 0.000000 100.000000
vn 0.000000 0.000000 100.000000
vn 0.000000 100.000000 0.000000
vn 0.000000 100.000000 0.000000
vn 0.000000 100.000000 0.000000
vn 0.000000 100.000000 0.000000
vn 0.000000 0.000000 -100.000000
vn 0.000000 0.000000 -100.000000
vn 0.000000 0.000000 -100.000000
vn 0.000000 0.000000 -100.000000
vn 0.000000 0.000000 -100.000000
vn 0.000000 0.000000 -100.000000
vn 0.000000 0.000000 100.000000
vn 0.000000 0.000000 100.000000
vn 0.000000 0.000000 100.000000
vn 0.000000 0.000000 100.000000
vn -100.000000 0.000000 0.000000
vn -100.000000 0.000000 0.000000
vn -100.000000 0.000000 0.000000
vn -100.000000 0.000000 0.000000
vn -100.000000 0.000000 0.000000
vn -100.000000 0.000000 0.000000
vn 0.000000 100.000000 0.000000
vn 0.000000 100.000000 0.000000
vn 0.000000 100.000000 0.000000
vn 0.000000 100.000000 0.000000
vn 0.000000 -100.000000 0.000000
vn 0.000000 -100.000000 0.000000
vn 0.000000 -100.000000 0.000000
vn 0.000000 -100.000000 0.000000
usemtl Steel_-_Satin
f 1/1/1 2/2/2 4/3/3
f 4/3/3 2/2/2 3/4/4
f 4/5/5 3/6/6 6/7/7
f 6/7/7 3/6/6 5/8/8
f 1/9/9 7/10/10 2/11/11
f 2/11/11 7/10/10 10/12/12
f 10/12/12 7/10/10 9/13/13
f 9/13/13 7/10/10 8/14/14
f 7/15/15 1/16/16 11/17/17
f 11/17/17 1/16/16 12/18/18
f 12/18/18 1/16/16 6/19/19
f 6/19/19 1/16/16 4/20/20
f 13/21/21 12/22/22 5/23/23
f 5/23/23 12/22/22 6/24/24
f 10/25/25 14/26/26 2/27/27
f 2/27/27 14/26/26 13/28/28
f 2/27/27 13/28/28 5/29/29
f 5/29/29 3/30/30 2/27/27
f 15/31/31 9/32/32 16/33/33
f 16/33/33 9/32/32 8/34/34
f 13/35/35 14/36/36 11/37/37
f 11/37/37 14/36/36 15/38/38
f 11/37/37 15/38/38 16/39/39
f 11/37/37 12/40/40 13/35/35
f 11/41/41 16/42/42 7/43/43
f 7/43/43 16/42/42 8/44/44
f 14/45/45 10/46/46 15/47/47
f 15/47/47 10/46/46 9/48/48
# 16 vertices
# 48 texture params
# 48 normals
# 28 facets

# 1 groups
