<?xml version="1.0" encoding="UTF-8"?>
<!DOCTYPE svg PUBLIC "-//W3C//DTD SVG 1.0//EN" "http://www.w3.org/TR/2001/REC-SVG-20010904/DTD/svg10.dtd">
<!-- Creator: CorelDRAW 2018 (64-Bit) -->
<svg xmlns="http://www.w3.org/2000/svg" xml:space="preserve" width="163mm" height="122mm" version="1.0" style="shape-rendering:geometricPrecision; text-rendering:geometricPrecision; image-rendering:optimizeQuality; fill-rule:evenodd; clip-rule:evenodd"
viewBox="0 0 16300 12200"
 xmlns:xlink="http://www.w3.org/1999/xlink">
 <defs>
  <style type="text/css">
   <![CDATA[
    .str5 {stroke:#CCCCCC;stroke-width:35.28;stroke-miterlimit:22.9256;stroke-opacity:0.800000}
    .str0 {stroke:black;stroke-width:28.22;stroke-miterlimit:22.9256}
    .str4 {stroke:black;stroke-width:28.22;stroke-linecap:square;stroke-miterlimit:22.9256}
    .str1 {stroke:#1F77B4;stroke-width:52.92;stroke-linecap:square;stroke-miterlimit:22.9256}
    .str3 {stroke:#2CA02C;stroke-width:52.92;stroke-linecap:square;stroke-miterlimit:22.9256}
    .str2 {stroke:#FF7F0E;stroke-width:52.92;stroke-linecap:square;stroke-miterlimit:22.9256}
    .fil2 {fill:none}
    .fil1 {fill:black}
    .fil0 {fill:white}
    .fil3 {fill:white;fill-opacity:0.800000}
   ]]>
  </style>
 </defs>
 <g id="Слой_x0020_1">
  <metadata id="CorelCorpID_0Corel-Layer"/>
  <path class="fil0" d="M22 12196l16256 0 0 -12192 -16256 0 0 12192z"/>
  <path class="fil0" d="M2054 10854.88l12598.4 0 0 -9387.84 -12598.4 0 0 9387.84z"/>
  <g>
   <path class="fil1" d="M2626.65 10854.88l0 123.47 0 -123.47zm0 0l0 0 0 0z"/>
   <path id="1" class="fil2 str0" d="M2626.65 10854.88l0 123.47m0 -123.47l0 0 0 0z"/>
  </g>
  <path class="fil1" d="M2626.54 11135.61c-17.89,0 -31.36,8.82 -40.4,26.46 -9,17.6 -13.5,44.1 -13.5,79.49 0,35.24 4.5,61.68 13.5,79.32 9.04,17.64 22.51,26.46 40.4,26.46 18.05,0 31.57,-8.82 40.57,-26.46 9.04,-17.64 13.56,-44.08 13.56,-79.32 0,-35.39 -4.52,-61.89 -13.56,-79.49 -9,-17.64 -22.52,-26.46 -40.57,-26.46zm0 -27.56c28.85,0 50.88,11.41 66.1,34.23 15.21,22.79 22.82,55.88 22.82,99.28 0,43.29 -7.61,76.34 -22.82,99.16 -15.22,22.78 -37.25,34.18 -66.1,34.18 -28.81,0 -50.82,-11.4 -66.03,-34.18 -15.21,-22.82 -22.82,-55.87 -22.82,-99.16 0,-43.4 7.61,-76.49 22.82,-99.28 15.21,-22.82 37.22,-34.23 66.03,-34.23z"/>
  <g>
   <path class="fil1" d="M4747.6 10854.88l0 123.47 0 -123.47zm0 0l0 0 0 0z"/>
   <path id="1" class="fil2 str0" d="M4747.6 10854.88l0 123.47m0 -123.47l0 0 0 0z"/>
  </g>
  <path class="fil1" d="M4673.46 11112.68l136.59 0 0 29.33 -104.73 0 0 63c5.03,-1.73 10.07,-3.01 15.1,-3.86 5.07,-0.84 10.15,-1.26 15.22,-1.26 28.7,0 51.42,7.86 68.18,23.59 16.79,15.73 25.19,37.02 25.19,63.88 0,27.67 -8.62,49.19 -25.85,64.55 -17.23,15.32 -41.52,22.99 -72.87,22.99 -10.8,0 -21.81,-0.92 -33.02,-2.76 -11.17,-1.84 -22.73,-4.59 -34.67,-8.27l0 -35c10.33,5.62 21,9.81 32.03,12.57 11.02,2.75 22.67,4.13 34.94,4.13 19.88,0 35.61,-5.22 47.19,-15.65 11.61,-10.44 17.42,-24.62 17.42,-42.56 0,-17.89 -5.81,-32.06 -17.42,-42.5 -11.58,-10.47 -27.31,-15.71 -47.19,-15.71 -9.3,0 -18.57,1.03 -27.83,3.09 -9.23,2.06 -18.65,5.28 -28.28,9.65l0 -129.21z"/>
  <g>
   <path class="fil1" d="M6868.54 10854.88l0 123.47 0 -123.47zm0 0l0 0 0 0z"/>
   <path id="1" class="fil2 str0" d="M6868.54 10854.88l0 123.47m0 -123.47l0 0 0 0z"/>
  </g>
  <path class="fil1" d="M6687.85 11340.61l56.83 0 0 -196.23 -61.84 12.4 0 -31.69 61.51 -12.41 34.78 0 0 227.93 56.83 0 0 29.27 -148.11 0 0 -29.27z"/>
  <path class="fil1" d="M6980.65 11135.61c-17.9,0 -31.36,8.82 -40.4,26.46 -9.01,17.6 -13.51,44.1 -13.51,79.49 0,35.24 4.5,61.68 13.51,79.32 9.04,17.64 22.5,26.46 40.4,26.46 18.04,0 31.57,-8.82 40.57,-26.46 9.04,-17.64 13.56,-44.08 13.56,-79.32 0,-35.39 -4.52,-61.89 -13.56,-79.49 -9,-17.64 -22.53,-26.46 -40.57,-26.46zm0 -27.56c28.85,0 50.88,11.41 66.09,34.23 15.21,22.79 22.82,55.88 22.82,99.28 0,43.29 -7.61,76.34 -22.82,99.16 -15.21,22.78 -37.24,34.18 -66.09,34.18 -28.81,0 -50.82,-11.4 -66.03,-34.18 -15.22,-22.82 -22.83,-55.87 -22.83,-99.16 0,-43.4 7.61,-76.49 22.83,-99.28 15.21,-22.82 37.22,-34.23 66.03,-34.23z"/>
  <g>
   <path class="fil1" d="M8989.48 10854.88l0 123.47 0 -123.47zm0 0l0 0 0 0z"/>
   <path id="1" class="fil2 str0" d="M8989.48 10854.88l0 123.47m0 -123.47l0 0 0 0z"/>
  </g>
  <path class="fil1" d="M8808.79 11340.61l56.83 0 0 -196.23 -61.84 12.4 0 -31.69 61.51 -12.41 34.79 0 0 227.93 56.83 0 0 29.27 -148.12 0 0 -29.27z"/>
  <path class="fil1" d="M9027.57 11112.68l136.59 0 0 29.33 -104.73 0 0 63c5.03,-1.73 10.06,-3.01 15.1,-3.86 5.07,-0.84 10.14,-1.26 15.21,-1.26 28.7,0 51.43,7.86 68.19,23.59 16.79,15.73 25.19,37.02 25.19,63.88 0,27.67 -8.62,49.19 -25.85,64.55 -17.24,15.32 -41.53,22.99 -72.87,22.99 -10.81,0 -21.81,-0.92 -33.02,-2.76 -11.17,-1.84 -22.73,-4.59 -34.67,-8.27l0 -35c10.32,5.62 21,9.81 32.02,12.57 11.03,2.75 22.68,4.13 34.95,4.13 19.88,0 35.61,-5.22 47.18,-15.65 11.61,-10.44 17.42,-24.62 17.42,-42.56 0,-17.89 -5.8,-32.06 -17.42,-42.5 -11.57,-10.47 -27.3,-15.71 -47.18,-15.71 -9.3,0 -18.58,1.03 -27.84,3.09 -9.22,2.06 -18.65,5.28 -28.27,9.65l0 -129.21z"/>
  <g>
   <path class="fil1" d="M11110.43 10854.88l0 123.47 0 -123.47zm0 0l0 0 0 0z"/>
   <path id="1" class="fil2 str0" d="M11110.43 10854.88l0 123.47m0 -123.47l0 0 0 0z"/>
  </g>
  <path class="fil1" d="M10953.66 11340.61l121.43 0 0 29.27 -163.27 0 0 -29.27c13.19,-13.67 31.18,-32.01 53.97,-55.01 22.82,-23.04 37.15,-37.91 42.99,-44.59 11.14,-12.5 18.91,-23.08 23.32,-31.75 4.45,-8.68 6.67,-17.2 6.67,-25.58 0,-13.67 -4.8,-24.8 -14.39,-33.4 -9.59,-8.64 -22.08,-12.96 -37.48,-12.96 -10.92,0 -22.44,1.89 -34.56,5.68 -12.09,3.79 -25.03,9.54 -38.81,17.25l0 -35.16c14,-5.63 27.08,-9.87 39.25,-12.74 12.2,-2.86 23.35,-4.3 33.46,-4.3 26.64,0 47.88,6.67 63.72,20.01 15.84,13.3 23.75,31.09 23.75,53.36 0,10.58 -1.98,20.62 -5.95,30.1 -3.93,9.44 -11.13,20.59 -21.61,33.45 -2.86,3.35 -11.99,12.98 -27.39,28.89 -15.36,15.91 -37.06,38.16 -65.1,66.75z"/>
  <path class="fil1" d="M11222.54 11135.61c-17.9,0 -31.37,8.82 -40.41,26.46 -9,17.6 -13.5,44.1 -13.5,79.49 0,35.24 4.5,61.68 13.5,79.32 9.04,17.64 22.51,26.46 40.41,26.46 18.04,0 31.56,-8.82 40.57,-26.46 9.04,-17.64 13.56,-44.08 13.56,-79.32 0,-35.39 -4.52,-61.89 -13.56,-79.49 -9.01,-17.64 -22.53,-26.46 -40.57,-26.46zm0 -27.56c28.84,0 50.87,11.41 66.09,34.23 15.21,22.79 22.82,55.88 22.82,99.28 0,43.29 -7.61,76.34 -22.82,99.16 -15.22,22.78 -37.25,34.18 -66.09,34.18 -28.81,0 -50.83,-11.4 -66.04,-34.18 -15.21,-22.82 -22.82,-55.87 -22.82,-99.16 0,-43.4 7.61,-76.49 22.82,-99.28 15.21,-22.82 37.23,-34.23 66.04,-34.23z"/>
  <g>
   <path class="fil1" d="M13231.37 10854.88l0 123.47 0 -123.47zm0 0l0 0 0 0z"/>
   <path id="1" class="fil2 str0" d="M13231.37 10854.88l0 123.47m0 -123.47l0 0 0 0z"/>
  </g>
  <path class="fil1" d="M13074.6 11340.61l121.44 0 0 29.27 -163.27 0 0 -29.27c13.19,-13.67 31.18,-32.01 53.96,-55.01 22.82,-23.04 37.15,-37.91 42.99,-44.59 11.14,-12.5 18.91,-23.08 23.32,-31.75 4.45,-8.68 6.67,-17.2 6.67,-25.58 0,-13.67 -4.8,-24.8 -14.39,-33.4 -9.59,-8.64 -22.08,-12.96 -37.48,-12.96 -10.91,0 -22.43,1.89 -34.56,5.68 -12.09,3.79 -25.03,9.54 -38.81,17.25l0 -35.16c14,-5.63 27.09,-9.87 39.25,-12.74 12.2,-2.86 23.35,-4.3 33.46,-4.3 26.64,0 47.88,6.67 63.72,20.01 15.84,13.3 23.76,31.09 23.76,53.36 0,10.58 -1.99,20.62 -5.96,30.1 -3.93,9.44 -11.13,20.59 -21.6,33.45 -2.87,3.35 -12,12.98 -27.4,28.89 -15.36,15.91 -37.06,38.16 -65.1,66.75z"/>
  <path class="fil1" d="M13269.45 11112.68l136.59 0 0 29.33 -104.73 0 0 63c5.03,-1.73 10.07,-3.01 15.1,-3.86 5.07,-0.84 10.15,-1.26 15.22,-1.26 28.7,0 51.43,7.86 68.18,23.59 16.8,15.73 25.19,37.02 25.19,63.88 0,27.67 -8.61,49.19 -25.85,64.55 -17.23,15.32 -41.52,22.99 -72.87,22.99 -10.8,0 -21.81,-0.92 -33.02,-2.76 -11.17,-1.84 -22.73,-4.59 -34.67,-8.27l0 -35c10.33,5.62 21,9.81 32.03,12.57 11.02,2.75 22.67,4.13 34.94,4.13 19.88,0 35.61,-5.22 47.19,-15.65 11.61,-10.44 17.42,-24.62 17.42,-42.56 0,-17.89 -5.81,-32.06 -17.42,-42.5 -11.58,-10.47 -27.31,-15.71 -47.19,-15.71 -9.29,0 -18.57,1.03 -27.83,3.09 -9.23,2.06 -18.65,5.28 -28.28,9.65l0 -129.21z"/>
  <path class="fil1" d="M8048.46 11603.65l0 33.96c-13.19,-6.32 -25.65,-11.03 -37.37,-14.12 -11.72,-3.12 -23.04,-4.68 -33.96,-4.68 -18.92,0 -33.53,3.67 -43.82,11.02 -10.29,7.35 -15.43,17.81 -15.43,31.37 0,11.39 3.42,19.99 10.25,25.79 6.84,5.77 19.79,10.44 38.86,14.01l21 4.29c25.95,4.96 45.09,13.67 57.44,26.13 12.35,12.46 18.52,29.12 18.52,50 0,24.95 -8.36,43.86 -25.08,56.72 -16.68,12.86 -41.16,19.29 -73.42,19.29 -12.16,0 -25.12,-1.38 -38.86,-4.13 -13.71,-2.76 -27.91,-6.84 -42.61,-12.24l0 -35.83c14.11,7.9 27.94,13.87 41.5,17.91 13.56,4.01 26.89,6.01 39.97,6.01 19.84,0 35.17,-3.89 45.97,-11.68 10.8,-7.83 16.2,-18.98 16.2,-33.46 0,-12.61 -3.87,-22.47 -11.63,-29.6 -7.75,-7.13 -20.46,-12.48 -38.14,-16.04l-21.22 -4.14c-25.94,-5.14 -44.72,-13.23 -56.34,-24.25 -11.57,-11.02 -17.36,-26.37 -17.36,-46.03 0,-22.74 8.01,-40.66 24.03,-53.74 16.02,-13.08 38.09,-19.62 66.2,-19.62 12.09,0 24.39,1.1 36.88,3.3 12.53,2.17 25.34,5.42 38.42,9.76z"/>
  <path class="fil1" d="M8148.2 11604.7l0 54.79 65.27 0 0 24.64 -65.27 0 0 104.73c0,15.73 2.15,25.83 6.45,30.32 4.3,4.48 13.07,6.72 26.3,6.72l32.52 0 0 26.51 -32.52 0c-24.48,0 -41.36,-4.55 -50.66,-13.67 -9.3,-9.15 -13.95,-25.77 -13.95,-49.88l0 -104.73 -23.26 0 0 -24.64 23.26 0 0 -54.79 31.86 0z"/>
  <path class="fil1" d="M8420.19 11748.01l0 15.49 -145.74 0c1.4,21.83 7.98,38.46 19.74,49.89 11.76,11.43 28.14,17.14 49.16,17.14 12.17,0 23.96,-1.49 35.39,-4.46 11.43,-2.98 22.79,-7.46 34.07,-13.45l0 29.98c-11.39,4.82 -23.06,8.49 -35,11.03 -11.95,2.53 -24.06,3.8 -36.33,3.8 -30.79,0 -55.18,-8.95 -73.15,-26.84 -17.97,-17.94 -26.95,-42.19 -26.95,-72.76 0,-31.57 8.52,-56.61 25.58,-75.14 17.05,-18.55 40.05,-27.83 69.01,-27.83 25.94,0 46.47,8.36 61.57,25.08 15.1,16.68 22.65,39.37 22.65,68.07zm-31.69 -9.31c-0.22,-17.31 -5.07,-31.13 -14.55,-41.45 -9.48,-10.36 -22.03,-15.55 -37.65,-15.55 -17.68,0 -31.82,5 -42.45,15 -10.62,9.99 -16.73,24.07 -18.35,42.22l113 -0.22z"/>
  <path class="fil1" d="M8502.85 11823.48l0 102.3 -31.86 0 0 -266.29 31.86 0 0 29.27c6.69,-11.47 15.1,-19.97 25.24,-25.52 10.18,-5.59 22.33,-8.38 36.44,-8.38 23.44,0 42.48,9.3 57.11,27.89 14.66,18.59 21.99,43.05 21.99,73.37 0,30.31 -7.33,54.79 -21.99,73.42 -14.63,18.59 -33.67,27.89 -57.11,27.89 -14.11,0 -26.26,-2.79 -36.44,-8.38 -10.14,-5.58 -18.55,-14.11 -25.24,-25.57zm107.87 -67.36c0,-23.3 -4.79,-41.58 -14.39,-54.85 -9.59,-13.27 -22.76,-19.9 -39.52,-19.9 -16.79,0 -29.98,6.63 -39.58,19.9 -9.59,13.27 -14.38,31.55 -14.38,54.85 0,23.3 4.79,41.58 14.38,54.84 9.59,13.27 22.79,19.9 39.58,19.9 16.76,0 29.93,-6.63 39.52,-19.9 9.59,-13.26 14.39,-31.55 14.39,-54.84z"/>
  <path class="fil1" d="M8819.11 11665.17l0 29.98c-8.93,-4.59 -18.23,-8.03 -27.89,-10.31 -9.63,-2.31 -19.63,-3.47 -29.99,-3.47 -15.73,0 -27.52,2.41 -35.39,7.22 -7.86,4.82 -11.79,12.06 -11.79,21.72 0,7.35 2.81,13.12 8.43,17.31 5.62,4.19 16.94,8.18 33.95,11.96l10.86 2.43c22.49,4.81 38.48,11.61 47.96,20.39 9.48,8.78 14.22,21.04 14.22,36.77 0,17.93 -7.09,32.13 -21.28,42.61 -14.18,10.43 -33.68,15.65 -58.48,15.65 -10.33,0 -21.09,-1.01 -32.3,-3.03 -11.21,-2.02 -23.01,-5.04 -35.39,-9.04l0 -32.74c11.72,6.1 23.26,10.67 34.62,13.72 11.35,3.01 22.62,4.52 33.79,4.52 14.92,0 26.38,-2.55 34.39,-7.66 8.05,-5.11 12.07,-12.31 12.07,-21.61 0,-8.6 -2.9,-15.19 -8.71,-19.79 -5.77,-4.59 -18.48,-9.02 -38.14,-13.28l-11.02 -2.59c-19.63,-4.12 -33.81,-10.46 -42.56,-19.02 -8.71,-8.56 -13.06,-20.3 -13.06,-35.22 0,-18.15 6.43,-32.16 19.29,-42 12.86,-9.89 31.13,-14.83 54.79,-14.83 11.69,0 22.69,0.86 33.02,2.59 10.36,1.69 19.9,4.26 28.61,7.72z"/>
  <g>
   <path class="fil1" d="M2054 9588.6l-123.47 0 123.47 0zm0 0l0 0 0 0z"/>
   <path id="1" class="fil2 str0" d="M2054 9588.6l-123.47 0m123.47 0l0 0 0 0z"/>
  </g>
  <path class="fil1" d="M1620.69 9465.43l136.59 0 0 29.32 -104.73 0 0 63.01c5.03,-1.73 10.07,-3.01 15.1,-3.86 5.07,-0.85 10.15,-1.27 15.22,-1.27 28.7,0 51.43,7.87 68.18,23.59 16.8,15.73 25.19,37.03 25.19,63.89 0,27.67 -8.61,49.19 -25.85,64.55 -17.23,15.32 -41.52,22.98 -72.87,22.98 -10.8,0 -21.81,-0.92 -33.02,-2.75 -11.17,-1.84 -22.73,-4.6 -34.67,-8.27l0 -35c10.33,5.62 21,9.81 32.03,12.56 11.02,2.76 22.67,4.14 34.94,4.14 19.88,0 35.61,-5.22 47.19,-15.66 11.61,-10.43 17.42,-24.62 17.42,-42.55 0,-17.9 -5.81,-32.06 -17.42,-42.5 -11.58,-10.47 -27.31,-15.71 -47.19,-15.71 -9.29,0 -18.57,1.03 -27.83,3.09 -9.23,2.06 -18.65,5.27 -28.28,9.64l0 -129.2z"/>
  <g>
   <path class="fil1" d="M2054 8260.58l-123.47 0 123.47 0zm0 0l0 0 0 0z"/>
   <path id="1" class="fil2 str0" d="M2054 8260.58l-123.47 0m123.47 0l0 0 0 0z"/>
  </g>
  <path class="fil1" d="M1401.91 8365.34l56.83 0 0 -196.23 -61.84 12.4 0 -31.69 61.51 -12.41 34.78 0 0 227.93 56.83 0 0 29.27 -148.11 0 0 -29.27z"/>
  <path class="fil1" d="M1694.71 8160.35c-17.9,0 -31.36,8.81 -40.4,26.45 -9.01,17.6 -13.51,44.1 -13.51,79.49 0,35.24 4.5,61.68 13.51,79.32 9.04,17.64 22.51,26.46 40.4,26.46 18.04,0 31.57,-8.82 40.57,-26.46 9.04,-17.64 13.56,-44.08 13.56,-79.32 0,-35.39 -4.52,-61.88 -13.56,-79.49 -9,-17.64 -22.53,-26.45 -40.57,-26.45zm0 -27.57c28.85,0 50.88,11.41 66.09,34.24 15.21,22.78 22.82,55.87 22.82,99.27 0,43.29 -7.6,76.34 -22.82,99.16 -15.21,22.79 -37.24,34.18 -66.09,34.18 -28.81,0 -50.82,-11.39 -66.03,-34.18 -15.22,-22.82 -22.82,-55.87 -22.82,-99.16 0,-43.4 7.6,-76.49 22.82,-99.27 15.21,-22.82 37.22,-34.24 66.03,-34.24z"/>
  <g>
   <path class="fil1" d="M2054 6932.57l-123.47 0 123.47 0zm0 0l0 0 0 0z"/>
   <path id="1" class="fil2 str0" d="M2054 6932.57l-123.47 0m123.47 0l0 0 0 0z"/>
  </g>
  <path class="fil1" d="M1401.91 7037.33l56.83 0 0 -196.24 -61.84 12.41 0 -31.7 61.51 -12.4 34.78 0 0 227.93 56.83 0 0 29.27 -148.11 0 0 -29.27z"/>
  <path class="fil1" d="M1620.68 6809.4l136.59 0 0 29.32 -104.73 0 0 63.01c5.04,-1.73 10.07,-3.02 15.11,-3.86 5.07,-0.85 10.14,-1.27 15.21,-1.27 28.7,0 51.43,7.87 68.19,23.59 16.79,15.73 25.19,37.03 25.19,63.89 0,27.67 -8.62,49.19 -25.86,64.55 -17.23,15.32 -41.52,22.98 -72.87,22.98 -10.8,0 -21.81,-0.92 -33.01,-2.75 -11.17,-1.84 -22.73,-4.6 -34.68,-8.27l0 -35c10.33,5.62 21.01,9.81 32.03,12.56 11.02,2.76 22.67,4.14 34.95,4.14 19.88,0 35.61,-5.22 47.18,-15.66 11.61,-10.43 17.42,-24.62 17.42,-42.55 0,-17.9 -5.81,-32.06 -17.42,-42.5 -11.57,-10.47 -27.3,-15.71 -47.18,-15.71 -9.3,0 -18.58,1.03 -27.84,3.09 -9.22,2.06 -18.65,5.27 -28.28,9.64l0 -129.2z"/>
  <g>
   <path class="fil1" d="M2054 5604.55l-123.47 0 123.47 0zm0 0l0 0 0 0z"/>
   <path id="1" class="fil2 str0" d="M2054 5604.55l-123.47 0m123.47 0l0 0 0 0z"/>
  </g>
  <path class="fil1" d="M1425.84 5709.31l121.43 0 0 29.27 -163.27 0 0 -29.27c13.19,-13.67 31.18,-32.01 53.96,-55.01 22.82,-23.04 37.15,-37.9 43,-44.59 11.13,-12.5 18.9,-23.08 23.31,-31.75 4.45,-8.67 6.67,-17.2 6.67,-25.58 0,-13.67 -4.79,-24.8 -14.38,-33.4 -9.59,-8.64 -22.09,-12.96 -37.49,-12.96 -10.91,0 -22.43,1.9 -34.56,5.68 -12.09,3.79 -25.02,9.54 -38.8,17.25l0 -35.16c14,-5.62 27.08,-9.87 39.24,-12.74 12.2,-2.86 23.36,-4.3 33.46,-4.3 26.64,0 47.88,6.67 63.72,20.01 15.84,13.3 23.76,31.09 23.76,53.36 0,10.58 -1.98,20.62 -5.95,30.1 -3.93,9.44 -11.14,20.59 -21.61,33.46 -2.87,3.34 -12,12.97 -27.4,28.88 -15.36,15.91 -37.06,38.16 -65.09,66.75z"/>
  <path class="fil1" d="M1694.71 5504.31c-17.9,0 -31.36,8.82 -40.4,26.46 -9.01,17.6 -13.51,44.1 -13.51,79.49 0,35.24 4.5,61.68 13.51,79.32 9.04,17.64 22.51,26.46 40.4,26.46 18.04,0 31.57,-8.82 40.57,-26.46 9.04,-17.64 13.56,-44.08 13.56,-79.32 0,-35.39 -4.52,-61.88 -13.56,-79.49 -9,-17.64 -22.53,-26.46 -40.57,-26.46zm0 -27.56c28.85,0 50.88,11.41 66.09,34.23 15.21,22.79 22.82,55.88 22.82,99.28 0,43.29 -7.6,76.34 -22.82,99.16 -15.21,22.78 -37.24,34.18 -66.09,34.18 -28.81,0 -50.82,-11.39 -66.03,-34.18 -15.22,-22.82 -22.82,-55.87 -22.82,-99.16 0,-43.4 7.6,-76.49 22.82,-99.28 15.21,-22.82 37.22,-34.23 66.03,-34.23z"/>
  <g>
   <path class="fil1" d="M2054 4276.54l-123.47 0 123.47 0zm0 0l0 0 0 0z"/>
   <path id="1" class="fil2 str0" d="M2054 4276.54l-123.47 0m123.47 0l0 0 0 0z"/>
  </g>
  <path class="fil1" d="M1425.84 4381.3l121.43 0 0 29.27 -163.27 0 0 -29.27c13.19,-13.67 31.18,-32.01 53.96,-55.01 22.82,-23.04 37.15,-37.91 43,-44.6 11.13,-12.49 18.9,-23.08 23.31,-31.75 4.45,-8.67 6.67,-17.2 6.67,-25.57 0,-13.67 -4.79,-24.81 -14.38,-33.41 -9.59,-8.63 -22.09,-12.95 -37.49,-12.95 -10.91,0 -22.43,1.89 -34.56,5.68 -12.09,3.78 -25.02,9.53 -38.8,17.25l0 -35.17c14,-5.62 27.08,-9.87 39.24,-12.73 12.2,-2.87 23.36,-4.3 33.46,-4.3 26.64,0 47.88,6.67 63.72,20.01 15.84,13.3 23.76,31.09 23.76,53.36 0,10.58 -1.98,20.61 -5.95,30.09 -3.93,9.45 -11.14,20.6 -21.61,33.46 -2.87,3.34 -12,12.97 -27.4,28.88 -15.36,15.91 -37.06,38.17 -65.09,66.76z"/>
  <path class="fil1" d="M1620.68 4153.37l136.59 0 0 29.32 -104.73 0 0 63.01c5.04,-1.73 10.07,-3.02 15.11,-3.86 5.07,-0.85 10.14,-1.27 15.21,-1.27 28.7,0 51.43,7.87 68.19,23.59 16.79,15.73 25.19,37.03 25.19,63.89 0,27.67 -8.62,49.19 -25.86,64.55 -17.23,15.32 -41.52,22.98 -72.87,22.98 -10.8,0 -21.81,-0.92 -33.01,-2.75 -11.17,-1.84 -22.73,-4.6 -34.68,-8.27l0 -35c10.33,5.62 21.01,9.81 32.03,12.56 11.02,2.76 22.67,4.14 34.95,4.14 19.88,0 35.61,-5.22 47.18,-15.66 11.61,-10.43 17.42,-24.62 17.42,-42.55 0,-17.9 -5.81,-32.06 -17.42,-42.5 -11.57,-10.47 -27.3,-15.71 -47.18,-15.71 -9.3,0 -18.58,1.03 -27.84,3.09 -9.22,2.06 -18.65,5.27 -28.28,9.64l0 -129.2z"/>
  <g>
   <path class="fil1" d="M2054 2948.52l-123.47 0 123.47 0zm0 0l0 0 0 0z"/>
   <path id="1" class="fil2 str0" d="M2054 2948.52l-123.47 0m123.47 0l0 0 0 0z"/>
  </g>
  <path class="fil1" d="M1501.3 2943.87c16.64,3.56 29.63,10.98 38.97,22.26 9.37,11.25 14.05,25.14 14.05,41.68 0,25.35 -8.72,44.99 -26.18,58.92 -17.45,13.89 -42.26,20.84 -74.41,20.84 -10.77,0 -21.87,-1.07 -33.3,-3.2 -11.43,-2.13 -23.22,-5.33 -35.38,-9.59l0 -33.57c9.62,5.62 20.17,9.87 31.64,12.73 11.5,2.87 23.51,4.3 36.04,4.3 21.79,0 38.41,-4.3 49.83,-12.9 11.43,-8.6 17.15,-21.11 17.15,-37.53 0,-15.18 -5.31,-27.03 -15.93,-35.56 -10.62,-8.56 -25.4,-12.84 -44.32,-12.84l-29.99 0 0 -28.61 31.37 0c17.09,0 30.17,-3.42 39.24,-10.25 9.08,-6.84 13.62,-16.68 13.62,-29.55 0,-13.19 -4.69,-23.31 -14.06,-30.37 -9.33,-7.09 -22.73,-10.64 -40.18,-10.64 -9.55,0 -19.79,1.05 -30.7,3.15 -10.92,2.05 -22.92,5.25 -36,9.59l0 -30.98c13.23,-3.68 25.62,-6.43 37.15,-8.27 11.54,-1.84 22.42,-2.76 32.64,-2.76 26.42,0 47.31,6.01 62.67,18.03 15.4,11.98 23.1,28.18 23.1,48.62 0,14.26 -4.08,26.29 -12.24,36.1 -8.16,9.81 -19.75,16.61 -34.78,20.4z"/>
  <path class="fil1" d="M1694.71 2848.28c-17.9,0 -31.36,8.82 -40.4,26.46 -9.01,17.6 -13.51,44.1 -13.51,79.49 0,35.24 4.5,61.68 13.51,79.32 9.04,17.64 22.51,26.46 40.4,26.46 18.04,0 31.57,-8.82 40.57,-26.46 9.04,-17.64 13.56,-44.08 13.56,-79.32 0,-35.39 -4.52,-61.89 -13.56,-79.49 -9,-17.64 -22.53,-26.46 -40.57,-26.46zm0 -27.56c28.85,0 50.88,11.41 66.09,34.23 15.21,22.79 22.82,55.88 22.82,99.28 0,43.29 -7.6,76.34 -22.82,99.16 -15.21,22.78 -37.24,34.18 -66.09,34.18 -28.81,0 -50.82,-11.39 -66.03,-34.18 -15.22,-22.82 -22.82,-55.87 -22.82,-99.16 0,-43.4 7.6,-76.49 22.82,-99.28 15.21,-22.82 37.22,-34.23 66.03,-34.23z"/>
  <g>
   <path class="fil1" d="M2054 1620.51l-123.47 0 123.47 0zm0 0l0 0 0 0z"/>
   <path id="1" class="fil2 str0" d="M2054 1620.51l-123.47 0m123.47 0l0 0 0 0z"/>
  </g>
  <path class="fil1" d="M1501.3 1615.85c16.64,3.56 29.63,10.99 38.97,22.27 9.37,11.24 14.05,25.13 14.05,41.67 0,25.36 -8.72,45 -26.18,58.93 -17.45,13.89 -42.26,20.83 -74.41,20.83 -10.77,0 -21.87,-1.06 -33.3,-3.2 -11.43,-2.13 -23.22,-5.32 -35.38,-9.59l0 -33.57c9.62,5.63 20.17,9.87 31.64,12.74 11.5,2.86 23.51,4.3 36.04,4.3 21.79,0 38.41,-4.3 49.83,-12.9 11.43,-8.6 17.15,-21.11 17.15,-37.54 0,-15.18 -5.31,-27.03 -15.93,-35.55 -10.62,-8.56 -25.4,-12.85 -44.32,-12.85l-29.99 0 0 -28.6 31.37 0c17.09,0 30.17,-3.42 39.24,-10.26 9.08,-6.83 13.62,-16.68 13.62,-29.54 0,-13.19 -4.69,-23.32 -14.06,-30.37 -9.33,-7.09 -22.73,-10.64 -40.18,-10.64 -9.55,0 -19.79,1.05 -30.7,3.14 -10.92,2.06 -22.92,5.25 -36,9.59l0 -30.98c13.23,-3.67 25.62,-6.43 37.15,-8.27 11.54,-1.83 22.42,-2.75 32.64,-2.75 26.42,0 47.31,6.01 62.67,18.02 15.4,11.98 23.1,28.19 23.1,48.62 0,14.26 -4.08,26.29 -12.24,36.11 -8.16,9.81 -19.75,16.6 -34.78,20.39z"/>
  <path class="fil1" d="M1620.68 1497.34l136.59 0 0 29.32 -104.73 0 0 63.01c5.04,-1.73 10.07,-3.02 15.11,-3.86 5.07,-0.85 10.14,-1.27 15.21,-1.27 28.7,0 51.43,7.86 68.19,23.59 16.79,15.73 25.19,37.03 25.19,63.89 0,27.67 -8.62,49.19 -25.86,64.55 -17.23,15.32 -41.52,22.98 -72.87,22.98 -10.8,0 -21.81,-0.92 -33.01,-2.75 -11.17,-1.84 -22.73,-4.6 -34.68,-8.27l0 -35c10.33,5.62 21.01,9.81 32.03,12.56 11.02,2.76 22.67,4.14 34.95,4.14 19.88,0 35.61,-5.22 47.18,-15.66 11.61,-10.43 17.42,-24.62 17.42,-42.55 0,-17.9 -5.81,-32.06 -17.42,-42.5 -11.57,-10.47 -27.3,-15.71 -47.18,-15.71 -9.3,0 -18.58,1.03 -27.84,3.09 -9.22,2.06 -18.65,5.27 -28.28,9.64l0 -129.2z"/>
  <path class="fil1" d="M1023.06 6753.16c2.54,-7.46 7.94,-14.72 16.21,-21.77 8.27,-7.06 19.64,-14.15 34.12,-21.28l70.28 -35.33 0 37.42 -65.98 32.86c-17.24,8.52 -28.67,16.77 -34.29,24.74 -5.62,7.98 -8.43,18.86 -8.43,32.64l0 37.92 108.7 0 0 34.78 -257.2 0 0 -78.55c0,-29.4 6.16,-51.33 18.47,-65.81 12.27,-14.48 30.81,-21.72 55.61,-21.72 16.21,0 29.66,3.77 40.35,11.3 10.66,7.53 18.05,18.47 22.16,32.8zm-107.98 87.2l91.28 0 0 -43.77c0,-16.75 -3.88,-29.41 -11.63,-37.97 -7.75,-8.57 -19.15,-12.85 -34.18,-12.85 -15.03,0 -26.36,4.28 -34.01,12.85 -7.64,8.56 -11.46,21.22 -11.46,37.97l0 43.77z"/>
  <path class="fil1" d="M1039.27 6482.24l15.49 0 0 145.74c21.83,-1.39 38.45,-7.97 49.88,-19.73 11.43,-11.76 17.15,-28.15 17.15,-49.17 0,-12.16 -1.49,-23.96 -4.47,-35.39 -2.98,-11.43 -7.46,-22.78 -13.45,-34.06l29.99 0c4.81,11.39 8.49,23.06 11.02,35 2.54,11.94 3.8,24.05 3.8,36.33 0,30.79 -8.94,55.17 -26.84,73.14 -17.93,17.97 -42.19,26.96 -72.76,26.96 -31.57,0 -56.61,-8.53 -75.13,-25.58 -18.56,-17.05 -27.84,-40.05 -27.84,-69.01 0,-25.95 8.36,-46.47 25.08,-61.57 16.69,-15.1 39.38,-22.66 68.08,-22.66zm-9.32 31.7c-17.31,0.22 -31.12,5.07 -41.45,14.55 -10.36,9.48 -15.54,22.03 -15.54,37.65 0,17.67 4.99,31.82 14.99,42.44 10,10.62 24.07,16.74 42.22,18.36l-0.22 -113z"/>
  <path class="fil1" d="M950.74 6448.65l0 -31.7 150.54 -39.63 -150.54 -39.41 0 -37.38 150.54 -39.63 -150.54 -39.46 0 -31.7 192.93 50.49 0 37.37 -158.15 41.51 158.15 41.67 0 37.43 -192.93 50.44z"/>
  <path class="fil1" d="M1046.71 6054.01c0,25.61 2.92,43.36 8.76,53.25 5.85,9.88 15.84,14.83 29.99,14.83 11.24,0 20.17,-3.72 26.79,-11.14 6.58,-7.42 9.87,-17.49 9.87,-30.21 0,-17.6 -6.23,-31.71 -18.69,-42.33 -12.46,-10.62 -29.01,-15.93 -49.66,-15.93l-7.06 0 0 31.53zm-13.12 -63.22l110.08 0 0 31.69 -29.27 0c11.68,7.24 20.32,16.26 25.91,27.07 5.58,10.8 8.37,24.01 8.37,39.63 0,19.73 -5.54,35.44 -16.64,47.13 -11.1,11.65 -25.95,17.47 -44.54,17.47 -21.68,0 -38.03,-7.26 -49.06,-21.77 -11.02,-14.55 -16.54,-36.24 -16.54,-65.05l0 -44.48 -3.14 0c-14.59,0 -25.87,4.8 -33.84,14.39 -7.98,9.59 -11.96,23.06 -11.96,40.4 0,11.03 1.32,21.77 3.97,32.25 2.64,10.43 6.61,20.47 11.9,30.09l-29.32 0c-4.49,-11.57 -7.83,-22.82 -10.03,-33.73 -2.24,-10.91 -3.37,-21.53 -3.37,-31.86 0,-27.93 7.24,-48.78 21.72,-62.56 14.44,-13.78 36.36,-20.67 65.76,-20.67z"/>
  <path class="fil1" d="M980.34 5813.74c-2.06,3.57 -3.56,7.44 -4.52,11.63 -0.99,4.19 -1.49,8.8 -1.49,13.84 0,17.93 5.83,31.69 17.48,41.28 11.65,9.59 28.39,14.39 50.21,14.39l101.65 0 0 31.86 -192.93 0 0 -31.86 29.99 0c-11.72,-6.69 -20.41,-15.36 -26.07,-26.02 -5.7,-10.69 -8.55,-23.68 -8.55,-38.97 0,-2.17 0.15,-4.57 0.44,-7.22 0.26,-2.64 0.68,-5.57 1.27,-8.76l32.52 -0.17z"/>
  <path class="fil1" d="M980.01 5659.72l-104.4 0 0 -31.7 268.06 0 0 31.7 -28.94 0c11.46,6.65 19.99,15.07 25.58,25.24 5.58,10.15 8.37,22.35 8.37,36.61 0,23.3 -9.29,42.27 -27.89,56.94 -18.63,14.62 -43.1,21.93 -73.42,21.93 -30.32,0 -54.77,-7.31 -73.37,-21.93 -18.59,-14.66 -27.89,-33.65 -27.89,-56.94 0,-14.26 2.8,-26.46 8.38,-36.61 5.55,-10.18 14.06,-18.59 25.52,-25.24zm67.36 107.98c23.3,0 41.58,-4.79 54.85,-14.38 13.26,-9.59 19.9,-22.77 19.9,-39.53 0,-16.75 -6.64,-29.95 -19.9,-39.57 -13.27,-9.67 -31.55,-14.5 -54.85,-14.5 -23.3,0 -41.58,4.83 -54.84,14.5 -13.27,9.63 -19.9,22.82 -19.9,39.57 0,16.76 6.63,29.93 19.9,39.53 13.26,9.59 31.54,14.38 54.84,14.38z"/>
  <path class="fil1" d="M956.42 5439.76l29.99 0c-4.6,8.93 -8.03,18.22 -10.31,27.89 -2.32,9.63 -3.47,19.62 -3.47,29.98 0,15.73 2.4,27.53 7.22,35.39 4.81,7.87 12.05,11.8 21.71,11.8 7.35,0 13.12,-2.81 17.31,-8.44 4.19,-5.62 8.18,-16.94 11.96,-33.95l2.43 -10.86c4.81,-22.49 11.61,-38.47 20.39,-47.95 8.79,-9.48 21.04,-14.23 36.77,-14.23 17.93,0 32.14,7.1 42.61,21.28 10.44,14.19 15.65,33.68 15.65,58.48 0,10.33 -1.01,21.1 -3.03,32.31 -2.02,11.21 -5.03,23 -9.04,35.38l-32.74 0c6.1,-11.72 10.68,-23.26 13.73,-34.61 3.01,-11.36 4.52,-22.62 4.52,-33.79 0,-14.92 -2.56,-26.39 -7.67,-34.4 -5.11,-8.05 -12.31,-12.07 -21.6,-12.07 -8.6,0 -15.2,2.9 -19.79,8.71 -4.6,5.77 -9.02,18.48 -13.29,38.14l-2.59 11.03c-4.11,19.62 -10.45,33.81 -19.01,42.55 -8.57,8.71 -20.31,13.07 -35.23,13.07 -18.15,0 -32.15,-6.43 -42,-19.3 -9.88,-12.86 -14.83,-31.12 -14.83,-54.79 0,-11.68 0.87,-22.69 2.59,-33.02 1.69,-10.36 4.27,-19.89 7.72,-28.6z"/>
  <path class="fil2 str1" d="M2626.65 9502.98l424.19 295.48 424.19 -588.99 424.19 114.06 424.19 159.95 424.19 -746.6 424.19 154.9 424.18 232.6 424.19 274.51 424.19 -266.86 424.19 -44.88 424.19 83.17 424.19 -459.45 424.19 -1078.95 424.18 -486.24 424.19 863.07 424.19 -3950.34 424.19 -109.68 424.19 -278.58 424.19 -731.34 424.19 180.5 424.18 -480.6"/>
  <path class="fil2 str2" d="M2626.65 10424.92l424.19 3.24 424.19 -222.86 424.19 154.44 424.19 -112.78 424.19 -86.12 424.19 67.28 424.18 -114.04 424.19 -405.41 424.19 238.42 424.19 94.93 424.19 -562.43 424.19 530.14 424.19 -100.4 424.18 -308.86 424.19 -1265.27 424.19 -925.61 424.19 539.9 424.19 -2242.74 424.19 -650.05 424.19 -176.97 424.18 -437.84 424.19 516.95 424.19 -1436.37 424.19 -1449.66 424.19 0.47 424.19 -121.1 424.19 -58.42"/>
  <path class="fil2 str3" d="M2626.65 9974.87l424.19 -82.86 424.19 -274.87 424.19 -34.29 424.19 -177.1 424.19 -1412.95 424.19 -650.66 424.18 -143.7 424.19 -480.23 424.19 319.85 424.19 -100.21 424.19 -605.27 424.19 -1298.58 424.19 130.79 424.18 -761.24 424.19 1167.83 424.19 -2473.75 424.18 -977.46 424.2 0 424.19 0 424.18 0"/>
  <path class="fil2 str4" d="M2054 10854.88l0 -9387.84"/>
  <path class="fil2 str4" d="M14652.4 10854.88l0 -9387.84"/>
  <path class="fil2 str4" d="M2054 10854.88l12598.4 0"/>
  <path class="fil2 str4" d="M2054 1467.04l12598.4 0"/>
  <path class="fil1" d="M4180.03 946.74l56.22 0 136.86 258.16 0 -258.16 40.48 0 0 308.63 -56.23 0 -136.79 -258.16 0 258.16 -40.54 0 0 -308.63z"/>
  <path class="fil1" d="M4584.74 1050.52c-20.37,0 -36.49,7.96 -48.35,23.88 -11.86,15.92 -17.8,37.72 -17.8,65.42 0,27.69 5.89,49.5 17.66,65.41 11.82,15.92 27.98,23.88 48.49,23.88 20.28,0 36.34,-7.98 48.15,-23.94 11.86,-16.01 17.8,-37.79 17.8,-65.35 0,-27.43 -5.93,-49.17 -17.8,-65.22 -11.82,-16.05 -27.87,-24.08 -48.15,-24.08zm0 -32.21c33.07,0 59.05,10.76 77.92,32.28 18.92,21.47 28.38,51.21 28.38,89.23 0,37.88 -9.46,67.62 -28.38,89.23 -18.87,21.56 -44.85,32.34 -77.92,32.34 -33.21,0 -59.22,-10.78 -78.05,-32.34 -18.79,-21.61 -28.18,-51.35 -28.18,-89.23 0,-38.01 9.39,-67.76 28.18,-89.23 18.83,-21.52 44.84,-32.28 78.05,-32.28z"/>
  <path class="fil1" d="M4946.53 1115.61l0 139.76 -38.03 0 0 -138.51c0,-21.91 -4.28,-38.29 -12.83,-49.14 -8.56,-10.89 -21.37,-16.34 -38.43,-16.34 -20.55,0 -36.76,6.55 -48.62,19.64 -11.86,13.06 -17.79,30.89 -17.79,53.52l0 130.83 -38.24 0 0 -231.51 38.24 0 0 35.99c9.13,-13.94 19.84,-24.35 32.14,-31.22 12.35,-6.88 26.59,-10.32 42.73,-10.32 26.59,0 46.7,8.22 60.33,24.67 13.67,16.45 20.5,40.66 20.5,72.63z"/>
  <path class="fil1" d="M5003.17 1122.49l111.39 0 0 33.86 -111.39 0 0 -33.86z"/>
  <path class="fil1" d="M5212.74 958.11l0 65.75 78.32 0 0 29.57 -78.32 0 0 125.68c0,18.87 2.58,31 7.74,36.38 5.16,5.38 15.68,8.07 31.56,8.07l39.02 0 0 31.81 -39.02 0c-29.37,0 -49.64,-5.46 -60.79,-16.4 -11.16,-10.98 -16.74,-30.94 -16.74,-59.86l0 -125.68 -27.91 0 0 -29.57 27.91 0 0 -65.75 38.23 0z"/>
  <path class="fil1" d="M5539.13 1130.09l0 18.59 -174.89 0c1.68,26.19 9.57,46.15 23.68,59.86 14.11,13.72 33.78,20.57 59.01,20.57 14.59,0 28.75,-1.78 42.46,-5.35 13.72,-3.57 27.34,-8.96 40.88,-16.14l0 35.98c-13.67,5.78 -27.67,10.19 -42,13.23 -14.33,3.04 -28.86,4.56 -43.59,4.56 -36.96,0 -66.21,-10.74 -87.78,-32.21 -21.56,-21.52 -32.34,-50.62 -32.34,-87.31 0,-37.88 10.23,-67.93 30.69,-90.16 20.46,-22.27 48.06,-33.4 82.81,-33.4 31.13,0 55.76,10.03 73.89,30.09 18.12,20.02 27.18,47.25 27.18,81.69zm-38.03 -11.18c-0.26,-20.77 -6.09,-37.35 -17.46,-49.74 -11.38,-12.43 -26.44,-18.65 -45.18,-18.65 -21.21,0 -38.19,6 -50.93,17.99 -12.75,12 -20.09,28.89 -22.03,50.67l135.6 -0.27z"/>
  <path class="fil1" d="M5735.69 1059.38c-4.28,-2.47 -8.93,-4.27 -13.96,-5.42 -5.03,-1.19 -10.56,-1.79 -16.6,-1.79 -21.52,0 -38.04,6.99 -49.55,20.97 -11.51,13.98 -17.26,34.07 -17.26,60.26l0 121.97 -38.23 0 0 -231.51 38.23 0 0 35.99c8.03,-14.07 18.43,-24.5 31.22,-31.29 12.83,-6.84 28.42,-10.25 46.76,-10.25 2.61,0 5.5,0.17 8.67,0.53 3.18,0.31 6.68,0.81 10.52,1.52l0.2 39.02z"/>
  <path class="fil1" d="M5948.43 1068.31c9.52,-17.11 20.9,-29.72 34.13,-37.83 13.23,-8.12 28.79,-12.17 46.7,-12.17 24.12,0 42.73,8.44 55.82,25.33 13.1,16.85 19.65,40.83 19.65,71.97l0 139.76 -38.23 0 0 -138.51c0,-22.18 -3.95,-38.63 -11.84,-49.34 -7.85,-10.76 -19.82,-16.14 -35.92,-16.14 -19.71,0 -35.3,6.55 -46.76,19.64 -11.42,13.06 -17.14,30.89 -17.14,53.52l0 130.83 -38.23 0 0 -138.51c0,-22.31 -3.92,-38.8 -11.77,-49.47 -7.85,-10.67 -19.98,-16.01 -36.38,-16.01 -19.45,0 -34.91,6.57 -46.37,19.71 -11.42,13.14 -17.13,30.96 -17.13,53.45l0 130.83 -38.24 0 0 -231.51 38.24 0 0 35.99c8.69,-14.2 19.09,-24.68 31.22,-31.42 12.13,-6.75 26.52,-10.12 43.19,-10.12 16.85,0 31.16,4.27 42.93,12.83 11.77,8.51 20.48,20.9 26.13,37.17z"/>
  <path class="fil1" d="M6180.56 1023.86l38.03 0 0 231.51 -38.03 0 0 -231.51zm0 -90.15l38.03 0 0 48.22 -38.03 0 0 -48.22z"/>
  <path class="fil1" d="M6490.66 1115.61l0 139.76 -38.04 0 0 -138.51c0,-21.91 -4.27,-38.29 -12.83,-49.14 -8.55,-10.89 -21.36,-16.34 -38.43,-16.34 -20.55,0 -36.75,6.55 -48.62,19.64 -11.86,13.06 -17.79,30.89 -17.79,53.52l0 130.83 -38.23 0 0 -231.51 38.23 0 0 35.99c9.13,-13.94 19.84,-24.35 32.15,-31.22 12.35,-6.88 26.59,-10.32 42.73,-10.32 26.59,0 46.7,8.22 60.32,24.67 13.67,16.45 20.51,40.66 20.51,72.63z"/>
  <path class="fil1" d="M6671.72 1139.02c-30.74,0 -52.04,3.51 -63.9,10.52 -11.86,7.01 -17.79,19.01 -17.79,35.98 0,13.5 4.45,24.21 13.36,32.15 8.91,7.89 20.99,11.84 36.24,11.84 21.13,0 38.06,-7.47 50.8,-22.42 12.75,-14.95 19.12,-34.82 19.12,-59.6l0 -8.47 -37.83 0zm75.86 -15.74l0 132.09 -38.03 0 0 -35.12c-8.69,14.02 -19.51,24.39 -32.48,31.09 -12.96,6.7 -28.81,10.05 -47.56,10.05 -23.68,0 -42.53,-6.66 -56.55,-19.97 -13.98,-13.32 -20.97,-31.14 -20.97,-53.45 0,-26.02 8.71,-45.64 26.13,-58.87 17.46,-13.23 43.48,-19.84 78.05,-19.84l53.38 0 0 -3.77c0,-17.51 -5.75,-31.05 -17.26,-40.62 -11.51,-9.57 -27.67,-14.35 -48.49,-14.35 -13.23,0 -26.13,1.59 -38.69,4.76 -12.53,3.18 -24.57,7.94 -36.12,14.29l0 -35.19c13.89,-5.38 27.39,-9.39 40.48,-12.04 13.1,-2.69 25.84,-4.03 38.23,-4.03 33.52,0 58.54,8.68 75.08,26.06 16.54,17.33 24.8,43.63 24.8,78.91z"/>
  <path class="fil1" d="M6825.89 933.71l38.04 0 0 321.66 -38.04 0 0 -321.66z"/>
  <path class="fil1" d="M7212.22 1059.38c-4.28,-2.47 -8.93,-4.27 -13.96,-5.42 -5.03,-1.19 -10.56,-1.79 -16.6,-1.79 -21.52,0 -38.04,6.99 -49.54,20.97 -11.51,13.98 -17.27,34.07 -17.27,60.26l0 121.97 -38.23 0 0 -231.51 38.23 0 0 35.99c8.03,-14.07 18.43,-24.5 31.22,-31.29 12.83,-6.84 28.42,-10.25 46.77,-10.25 2.6,0 5.49,0.17 8.66,0.53 3.18,0.31 6.68,0.81 10.52,1.52l0.2 39.02z"/>
  <path class="fil1" d="M7248.22 1164.03l0 -140.17 38.03 0 0 138.71c0,21.92 4.26,38.37 12.77,49.35 8.55,10.93 21.38,16.4 38.49,16.4 20.51,0 36.72,-6.55 48.62,-19.65 11.95,-13.09 17.93,-30.95 17.93,-53.57l0 -131.24 38.03 0 0 231.51 -38.03 0 0 -35.58c-9.22,14.06 -19.93,24.51 -32.15,31.35 -12.17,6.84 -26.33,10.25 -42.47,10.25 -26.59,0 -46.78,-8.27 -60.58,-24.8 -13.76,-16.54 -20.64,-40.73 -20.64,-72.56zm95.71 -145.72l0 0z"/>
  <path class="fil1" d="M7520.42 933.71l38.04 0 0 321.66 -38.04 0 0 -321.66z"/>
  <path class="fil1" d="M7836.08 1130.09l0 18.59 -174.89 0c1.68,26.19 9.57,46.15 23.68,59.86 14.11,13.72 33.78,20.57 59,20.57 14.6,0 28.75,-1.78 42.47,-5.35 13.71,-3.57 27.34,-8.96 40.88,-16.14l0 35.98c-13.67,5.78 -27.67,10.19 -42.01,13.23 -14.33,3.04 -28.86,4.56 -43.59,4.56 -36.95,0 -66.21,-10.74 -87.77,-32.21 -21.56,-21.52 -32.35,-50.62 -32.35,-87.31 0,-37.88 10.23,-67.93 30.69,-90.16 20.46,-22.27 48.07,-33.4 82.82,-33.4 31.13,0 55.76,10.03 73.88,30.09 18.13,20.02 27.19,47.25 27.19,81.69zm-38.03 -11.18c-0.27,-20.77 -6.09,-37.35 -17.47,-49.74 -11.37,-12.43 -26.43,-18.65 -45.17,-18.65 -21.21,0 -38.19,6 -50.94,17.99 -12.74,12 -20.08,28.89 -22.02,50.67l135.6 -0.27z"/>
  <path class="fil1" d="M8046.06 1030.68l0 35.98c-10.72,-5.51 -21.87,-9.64 -33.47,-12.37 -11.55,-2.78 -23.55,-4.17 -35.98,-4.17 -18.88,0 -33.03,2.89 -42.47,8.67 -9.44,5.78 -14.15,14.46 -14.15,26.06 0,8.82 3.37,15.74 10.12,20.77 6.74,5.03 20.33,9.81 40.74,14.35l13.03 2.91c26.99,5.78 46.17,13.94 57.55,24.48 11.38,10.54 17.07,25.24 17.07,44.12 0,21.52 -8.52,38.56 -25.54,51.13 -17.02,12.52 -40.41,18.78 -70.18,18.78 -12.39,0 -25.31,-1.21 -38.76,-3.64 -13.45,-2.42 -27.6,-6.04 -42.46,-10.84l0 -39.29c14.06,7.32 27.91,12.81 41.54,16.47 13.62,3.61 27.14,5.42 40.54,5.42 17.91,0 31.66,-3.06 41.28,-9.19 9.66,-6.13 14.48,-14.78 14.48,-25.93 0,-10.32 -3.48,-18.24 -10.45,-23.75 -6.92,-5.51 -22.18,-10.83 -45.77,-15.94l-13.23 -3.11c-23.55,-4.94 -40.57,-12.55 -51.06,-22.82 -10.45,-10.27 -15.68,-24.36 -15.68,-42.27 0,-21.78 7.72,-38.58 23.15,-50.4 15.43,-11.86 37.35,-17.79 65.75,-17.79 14.02,0 27.23,1.03 39.62,3.11 12.44,2.03 23.88,5.11 34.33,9.26z"/>
  <path class="fil1" d="M8128.77 1202.85l43.59 0 0 52.52 -43.59 0 0 -52.52zm0 -166.35l43.59 0 0 52.45 -43.59 0 0 -52.45z"/>
  <path class="fil1" d="M8408.87 1220.25l68.2 0 0 -235.48 -74.22 14.88 0 -38.03 73.82 -14.88 41.74 0 0 273.51 68.19 0 0 35.12 -177.73 0 0 -35.12z"/>
  <path class="fil1" d="M8671.39 946.74l163.91 0 0 35.19 -125.67 0 0 75.6c6.04,-2.07 12.08,-3.61 18.12,-4.63 6.09,-1.01 12.17,-1.52 18.26,-1.52 34.44,0 61.71,9.44 81.82,28.31 20.15,18.87 30.23,44.43 30.23,76.66 0,33.21 -10.34,59.03 -31.02,77.46 -20.68,18.39 -49.83,27.58 -87.45,27.58 -12.96,0 -26.17,-1.1 -39.62,-3.3 -13.41,-2.21 -27.27,-5.52 -41.61,-9.93l0 -42c12.39,6.75 25.21,11.77 38.43,15.08 13.23,3.31 27.21,4.96 41.94,4.96 23.86,0 42.73,-6.26 56.62,-18.78 13.94,-12.53 20.9,-29.55 20.9,-51.07 0,-21.47 -6.96,-38.47 -20.9,-51 -13.89,-12.56 -32.76,-18.85 -56.62,-18.85 -11.16,0 -22.29,1.24 -33.4,3.71 -11.07,2.47 -22.38,6.33 -33.94,11.57l0 -155.04z"/>
  <path class="fil1" d="M8940.27 1202.85l43.66 0 0 52.52 -43.66 0 0 -52.52z"/>
  <path class="fil1" d="M9330.98 975.05c-30.34,0 -54.44,11.31 -72.3,33.93 -17.82,22.58 -26.72,53.38 -26.72,92.41 0,38.85 8.9,69.58 26.72,92.2 17.86,22.58 41.96,33.87 72.3,33.87 30.29,0 54.3,-11.29 72.03,-33.87 17.73,-22.62 26.59,-53.35 26.59,-92.2 0,-39.03 -8.86,-69.83 -26.59,-92.41 -17.73,-22.62 -41.74,-33.93 -72.03,-33.93zm0 -33.87c43.26,0 77.83,14.51 103.71,43.52 25.93,29.02 38.9,67.91 38.9,116.69 0,48.64 -12.97,87.46 -38.9,116.48 -25.88,29.02 -60.45,43.52 -103.71,43.52 -43.39,0 -78.1,-14.46 -104.12,-43.39 -25.97,-28.97 -38.96,-67.84 -38.96,-116.61 0,-48.77 12.99,-87.67 38.96,-116.69 26.02,-29.01 60.72,-43.52 104.12,-43.52z"/>
  <path class="fil1" d="M9703.48 1139.82c0,-27.96 -5.76,-49.9 -17.27,-65.82 -11.51,-15.92 -27.32,-23.88 -47.42,-23.88 -20.16,0 -35.99,7.96 -47.5,23.88 -11.51,15.92 -17.26,37.86 -17.26,65.82 0,27.96 5.75,49.89 17.26,65.81 11.51,15.92 27.34,23.88 47.5,23.88 20.11,0 35.91,-7.96 47.42,-23.88 11.51,-15.92 17.27,-37.86 17.27,-65.81zm-129.45 -80.83c8.03,-13.76 18.12,-23.97 30.29,-30.63 12.22,-6.7 26.79,-10.05 43.73,-10.05 28.13,0 50.97,11.15 68.52,33.47 17.6,22.31 26.4,51.66 26.4,88.04 0,36.38 -8.8,65.75 -26.4,88.1 -17.55,22.32 -40.39,33.47 -68.52,33.47 -16.94,0 -31.51,-3.35 -43.73,-10.05 -12.17,-6.7 -22.27,-16.93 -30.29,-30.69l0 34.72 -38.23 0 0 -321.66 38.23 0 0 125.28z"/>
  <path class="fil1" d="M9805.97 1023.86l38.03 0 0 235.68c0,29.46 -5.62,50.8 -16.86,64.03 -11.2,13.23 -29.28,19.84 -54.24,19.84l-14.49 0 0 -32.21 10.19 0c14.46,0 24.29,-3.35 29.5,-10.05 5.25,-6.66 7.87,-20.53 7.87,-41.61l0 -235.68zm0 -90.15l38.03 0 0 48.22 -38.03 0 0 -48.22z"/>
  <path class="fil1" d="M10121.63 1130.09l0 18.59 -174.89 0c1.67,26.19 9.57,46.15 23.68,59.86 14.11,13.72 33.77,20.57 59,20.57 14.6,0 28.75,-1.78 42.46,-5.35 13.72,-3.57 27.34,-8.96 40.88,-16.14l0 35.98c-13.67,5.78 -27.67,10.19 -42,13.23 -14.33,3.04 -28.86,4.56 -43.59,4.56 -36.95,0 -66.21,-10.74 -87.78,-32.21 -21.56,-21.52 -32.34,-50.62 -32.34,-87.31 0,-37.88 10.23,-67.93 30.69,-90.16 20.46,-22.27 48.07,-33.4 82.81,-33.4 31.14,0 55.77,10.03 73.89,30.09 18.12,20.02 27.19,47.25 27.19,81.69zm-38.04 -11.18c-0.26,-20.77 -6.08,-37.35 -17.46,-49.74 -11.38,-12.43 -26.44,-18.65 -45.18,-18.65 -21.21,0 -38.19,6 -50.93,17.99 -12.74,12 -20.09,28.89 -22.03,50.67l135.6 -0.27z"/>
  <path class="fil1" d="M10350.66 1032.73l0 35.58c-10.76,-5.95 -21.55,-10.4 -32.35,-13.36 -10.8,-2.95 -21.72,-4.43 -32.74,-4.43 -24.7,0 -43.88,7.83 -57.55,23.48 -13.63,15.61 -20.44,37.55 -20.44,65.82 0,28.26 6.82,50.22 20.44,65.88 13.67,15.61 32.85,23.41 57.55,23.41 11.02,0 21.94,-1.47 32.74,-4.43 10.8,-2.95 21.59,-7.41 32.35,-13.36l0 35.19c-10.63,4.94 -21.63,8.64 -33.01,11.11 -11.33,2.52 -23.42,3.77 -36.25,3.77 -34.88,0 -62.6,-10.96 -83.14,-32.87 -20.51,-21.92 -30.76,-51.49 -30.76,-88.7 0,-37.75 10.36,-67.43 31.09,-89.04 20.77,-21.65 49.21,-32.47 85.32,-32.47 11.69,0 23.11,1.21 34.27,3.63 11.16,2.38 21.98,5.98 32.48,10.79z"/>
  <path class="fil1" d="M10454.42 958.11l0 65.75 78.32 0 0 29.57 -78.32 0 0 125.68c0,18.87 2.58,31 7.74,36.38 5.16,5.38 15.68,8.07 31.55,8.07l39.03 0 0 31.81 -39.03 0c-29.37,0 -49.63,-5.46 -60.79,-16.4 -11.15,-10.98 -16.73,-30.94 -16.73,-59.86l0 -125.68 -27.91 0 0 -29.57 27.91 0 0 -65.75 38.23 0z"/>
  <path class="fil1" d="M10592.49 1202.85l43.59 0 0 52.52 -43.59 0 0 -52.52zm0 -166.35l43.59 0 0 52.45 -43.59 0 0 -52.45z"/>
  <path class="fil3 str5" d="M2300.94 3302.7l1888.08 0c47.04,0 70.56,-23.52 70.56,-70.56l0 -1518.16c0,-47.03 -23.52,-70.55 -70.56,-70.55l-1888.08 0c-47.03,0 -70.55,23.52 -70.55,70.55l0 1518.16c0,47.04 23.52,70.56 70.55,70.56z"/>
  <path class="fil2 str1" d="M2371.5 1929.12l352.78 0 352.78 0"/>
  <path class="fil1" d="M3479.88 1829.68l-47.24 128 94.59 0 -47.35 -128zm-19.67 -34.28l39.46 0 98.01 257.2 -36.16 0 -23.43 -65.98 -115.92 0 -23.42 65.98 -36.72 0 98.18 -257.2z"/>
  <path class="fil1" d="M3733.45 1818.99c-25.28,0 -45.37,9.43 -60.25,28.28 -14.84,18.81 -22.27,44.48 -22.27,77 0,32.38 7.43,57.99 22.27,76.84 14.88,18.82 34.97,28.22 60.25,28.22 25.25,0 45.25,-9.4 60.03,-28.22 14.77,-18.85 22.16,-44.46 22.16,-76.84 0,-32.52 -7.39,-58.19 -22.16,-77 -14.77,-18.85 -34.78,-28.28 -60.03,-28.28zm0 -28.22c36.05,0 64.86,12.09 86.43,36.27 21.61,24.18 32.41,56.59 32.41,97.23 0,40.53 -10.8,72.89 -32.41,97.07 -21.57,24.18 -50.38,36.27 -86.43,36.27 -36.16,0 -65.08,-12.05 -86.76,-36.16 -21.65,-24.14 -32.47,-56.53 -32.47,-97.18 0,-40.64 10.82,-73.05 32.47,-97.23 21.68,-24.18 50.6,-36.27 86.76,-36.27z"/>
  <path class="fil1" d="M4099.32 1815.24l0 36.66c-11.72,-10.92 -24.22,-19.06 -37.48,-24.42 -13.27,-5.4 -27.36,-8.1 -42.28,-8.1 -29.4,0 -51.91,8.98 -67.53,26.95 -15.61,17.97 -23.42,43.95 -23.42,77.94 0,33.88 7.81,59.81 23.42,77.78 15.62,17.97 38.13,26.95 67.53,26.95 14.92,0 29.01,-2.7 42.28,-8.1 13.26,-5.4 25.76,-13.56 37.48,-24.47l0 36.38c-12.16,8.27 -25.06,14.48 -38.7,18.63 -13.59,4.11 -27.96,6.17 -43.1,6.17 -38.95,0 -69.64,-11.9 -92.05,-35.72 -22.38,-23.85 -33.57,-56.39 -33.57,-97.62 0,-41.34 11.19,-73.91 33.57,-97.73 22.41,-23.85 53.1,-35.77 92.05,-35.77 15.36,0 29.84,2.04 43.43,6.12 13.64,4.08 26.43,10.19 38.37,18.35z"/>
  <path class="fil2 str2" d="M2371.5 2446.94l352.78 0 352.78 0"/>
  <path class="fil1" d="M3479.88 2347.5l-47.24 127.99 94.59 0 -47.35 -127.99zm-19.67 -34.29l39.46 0 98.01 257.2 -36.16 0 -23.43 -65.98 -115.92 0 -23.42 65.98 -36.72 0 98.18 -257.2z"/>
  <path class="fil1" d="M3821.64 2333.05l0 36.66c-11.72,-10.91 -24.21,-19.05 -37.48,-24.42 -13.26,-5.4 -27.36,-8.1 -42.28,-8.1 -29.4,0 -51.9,8.98 -67.52,26.95 -15.62,17.97 -23.43,43.95 -23.43,77.94 0,33.88 7.81,59.81 23.43,77.78 15.62,17.97 38.13,26.96 67.52,26.96 14.92,0 29.02,-2.71 42.28,-8.11 13.27,-5.4 25.76,-13.56 37.48,-24.47l0 36.38c-12.16,8.27 -25.06,14.48 -38.69,18.63 -13.6,4.12 -27.97,6.17 -43.11,6.17 -38.95,0 -69.63,-11.9 -92.05,-35.72 -22.38,-23.85 -33.57,-56.38 -33.57,-97.62 0,-41.34 11.19,-73.91 33.57,-97.73 22.42,-23.85 53.1,-35.77 92.05,-35.77 15.36,0 29.84,2.04 43.44,6.12 13.63,4.08 26.42,10.2 38.36,18.35z"/>
  <path class="fil1" d="M4050.72 2533.7l0 -69.07 -56.83 0 0 -28.61 91.28 0 0 110.46c-13.42,9.52 -28.23,16.73 -44.43,21.61 -16.17,4.89 -33.44,7.33 -51.82,7.33 -40.2,0 -71.65,-11.74 -94.36,-35.22 -22.68,-23.52 -34.01,-56.22 -34.01,-98.12 0,-42.04 11.33,-74.8 34.01,-98.28 22.71,-23.48 54.16,-35.22 94.36,-35.22 16.76,0 32.69,2.08 47.79,6.23 15.11,4.12 29.04,10.2 41.79,18.24l0 37.05c-12.86,-10.92 -26.53,-19.13 -41.01,-24.64 -14.48,-5.51 -29.7,-8.27 -45.64,-8.27 -31.5,0 -55.14,8.78 -70.95,26.35 -15.76,17.56 -23.64,43.74 -23.64,78.54 0,34.69 7.88,60.82 23.64,78.39 15.8,17.56 39.45,26.35 70.95,26.35 12.27,0 23.22,-1.07 32.85,-3.2 9.66,-2.13 18.34,-5.44 26.02,-9.92z"/>
  <path class="fil2 str3" d="M2371.5 2964.75l352.78 0 352.78 0"/>
  <path class="fil1" d="M3548.07 2839.46l0 33.95c-13.19,-6.32 -25.65,-11.02 -37.37,-14.11 -11.72,-3.12 -23.04,-4.69 -33.96,-4.69 -18.92,0 -33.53,3.68 -43.82,11.03 -10.29,7.35 -15.43,17.8 -15.43,31.36 0,11.39 3.41,19.99 10.25,25.8 6.83,5.77 19.79,10.44 38.86,14l21 4.3c25.94,4.96 45.09,13.67 57.44,26.13 12.35,12.46 18.52,29.12 18.52,49.99 0,24.95 -8.36,43.86 -25.08,56.72 -16.68,12.86 -41.16,19.3 -73.42,19.3 -12.17,0 -25.12,-1.38 -38.86,-4.14 -13.71,-2.76 -27.91,-6.83 -42.61,-12.24l0 -35.82c14.11,7.9 27.94,13.87 41.5,17.91 13.56,4.01 26.88,6.01 39.97,6.01 19.84,0 35.16,-3.9 45.97,-11.69 10.8,-7.83 16.2,-18.98 16.2,-33.46 0,-12.6 -3.87,-22.47 -11.63,-29.6 -7.75,-7.13 -20.47,-12.47 -38.14,-16.04l-21.22 -4.13c-25.95,-5.15 -44.73,-13.23 -56.34,-24.25 -11.57,-11.03 -17.36,-26.37 -17.36,-46.03 0,-22.75 8.01,-40.66 24.03,-53.74 16.02,-13.09 38.09,-19.63 66.2,-19.63 12.09,0 24.39,1.1 36.88,3.31 12.53,2.17 25.34,5.42 38.42,9.76z"/>
  <path class="fil1" d="M3810.42 2850.87l0 36.65c-11.72,-10.91 -24.22,-19.05 -37.48,-24.42 -13.27,-5.4 -27.36,-8.1 -42.28,-8.1 -29.4,0 -51.91,8.98 -67.52,26.95 -15.62,17.97 -23.43,43.95 -23.43,77.95 0,33.88 7.81,59.8 23.43,77.77 15.61,17.97 38.12,26.96 67.52,26.96 14.92,0 29.01,-2.7 42.28,-8.11 13.26,-5.4 25.76,-13.56 37.48,-24.47l0 36.38c-12.16,8.27 -25.06,14.48 -38.7,18.63 -13.59,4.12 -27.96,6.18 -43.1,6.18 -38.95,0 -69.64,-11.91 -92.05,-35.72 -22.38,-23.85 -33.57,-56.39 -33.57,-97.62 0,-41.34 11.19,-73.92 33.57,-97.73 22.41,-23.85 53.1,-35.78 92.05,-35.78 15.36,0 29.84,2.04 43.44,6.12 13.63,4.08 26.42,10.2 38.36,18.36z"/>
  <path class="fil1" d="M4039.49 3051.51l0 -69.07 -56.83 0 0 -28.61 91.28 0 0 110.47c-13.41,9.52 -28.22,16.72 -44.43,21.6 -16.17,4.89 -33.44,7.34 -51.81,7.34 -40.2,0 -71.66,-11.75 -94.37,-35.23 -22.67,-23.52 -34.01,-56.22 -34.01,-98.11 0,-42.04 11.34,-74.8 34.01,-98.29 22.71,-23.48 54.17,-35.22 94.37,-35.22 16.76,0 32.69,2.08 47.79,6.23 15.1,4.12 29.03,10.2 41.78,18.25l0 37.04c-12.86,-10.92 -26.53,-19.13 -41.01,-24.64 -14.48,-5.51 -29.69,-8.27 -45.64,-8.27 -31.49,0 -55.14,8.78 -70.94,26.35 -15.76,17.56 -23.65,43.75 -23.65,78.55 0,34.69 7.89,60.81 23.65,78.38 15.8,17.56 39.45,26.35 70.94,26.35 12.27,0 23.23,-1.07 32.85,-3.2 9.67,-2.13 18.34,-5.44 26.02,-9.92z"/>
  <path class="fil1" d="M11026.03 1034.64l0 35.58c-10.76,-5.95 -21.54,-10.4 -32.34,-13.36 -10.81,-2.95 -21.72,-4.43 -32.75,-4.43 -24.69,0 -43.87,7.83 -57.54,23.48 -13.63,15.61 -20.44,37.55 -20.44,65.82 0,28.26 6.81,50.22 20.44,65.88 13.67,15.61 32.85,23.41 57.54,23.41 11.03,0 21.94,-1.47 32.75,-4.43 10.8,-2.95 21.58,-7.41 32.34,-13.36l0 35.19c-10.63,4.94 -21.63,8.64 -33,11.11 -11.34,2.52 -23.42,3.77 -36.25,3.77 -34.88,0 -62.6,-10.96 -83.15,-32.87 -20.5,-21.92 -30.76,-51.49 -30.76,-88.7 0,-37.75 10.37,-67.43 31.09,-89.04 20.77,-21.65 49.22,-32.47 85.33,-32.47 11.69,0 23.11,1.21 34.26,3.63 11.16,2.38 21.99,5.98 32.48,10.79z"/>
  <path class="fil1" d="M11188.47 1278.78c-10.72,27.56 -21.19,45.53 -31.42,53.91 -10.19,8.42 -23.81,12.63 -40.88,12.63l-30.42 0 0 -31.81 22.35 0c10.45,0 18.57,-2.49 24.34,-7.48 5.82,-4.94 12.24,-16.64 19.25,-35.12l6.82 -17.33 -93.6 -227.81 40.28 0 72.37 181.04 72.36 -181.04 40.28 0 -101.73 253.01z"/>
  <path class="fil1" d="M11342.69 935.62l38.03 0 0 321.66 -38.03 0 0 -321.66z"/>
  <path class="fil1" d="M11460.3 1025.77l38.04 0 0 231.51 -38.04 0 0 -231.51zm0 -90.15l38.04 0 0 48.22 -38.04 0 0 -48.22z"/>
  <path class="fil1" d="M11770.4 1117.52l0 139.76 -38.03 0 0 -138.51c0,-21.91 -4.28,-38.29 -12.83,-49.14 -8.56,-10.89 -21.37,-16.34 -38.43,-16.34 -20.55,0 -36.76,6.55 -48.62,19.64 -11.86,13.06 -17.79,30.89 -17.79,53.52l0 130.83 -38.24 0 0 -231.51 38.24 0 0 35.99c9.13,-13.94 19.84,-24.35 32.14,-31.22 12.35,-6.88 26.59,-10.32 42.73,-10.32 26.59,0 46.7,8.22 60.33,24.67 13.67,16.45 20.5,40.66 20.5,72.63z"/>
  <path class="fil1" d="M11998.56 1060.9l0 -125.28 38.03 0 0 321.66 -38.03 0 0 -34.72c-7.98,13.76 -18.08,23.99 -30.3,30.69 -12.17,6.7 -26.81,10.05 -43.92,10.05 -27.96,0 -50.73,-11.15 -68.33,-33.47 -17.55,-22.36 -26.32,-51.72 -26.32,-88.1 0,-36.38 8.77,-65.73 26.32,-88.04 17.6,-22.32 40.37,-33.47 68.33,-33.47 17.11,0 31.75,3.35 43.92,10.05 12.22,6.66 22.32,16.87 30.3,30.63zm-129.58 80.83c0,27.96 5.75,49.89 17.26,65.81 11.51,15.92 27.32,23.88 47.43,23.88 20.11,0 35.94,-7.96 47.49,-23.88 11.6,-15.92 17.4,-37.86 17.4,-65.81 0,-27.96 -5.8,-49.9 -17.4,-65.82 -11.55,-15.92 -27.38,-23.88 -47.49,-23.88 -20.11,0 -35.92,7.96 -47.43,23.88 -11.51,15.92 -17.26,37.86 -17.26,65.82z"/>
  <path class="fil1" d="M12312.98 1132l0 18.59 -174.89 0c1.68,26.19 9.57,46.15 23.68,59.86 14.11,13.72 33.78,20.57 59,20.57 14.6,0 28.76,-1.78 42.47,-5.35 13.71,-3.57 27.34,-8.96 40.88,-16.14l0 35.98c-13.67,5.78 -27.67,10.19 -42,13.23 -14.33,3.04 -28.87,4.56 -43.59,4.56 -36.96,0 -66.22,-10.74 -87.78,-32.21 -21.56,-21.52 -32.35,-50.62 -32.35,-87.31 0,-37.88 10.24,-67.93 30.7,-90.16 20.46,-22.27 48.06,-33.4 82.81,-33.4 31.13,0 55.76,10.03 73.89,30.09 18.12,20.02 27.18,47.25 27.18,81.69zm-38.03 -11.18c-0.27,-20.77 -6.09,-37.35 -17.46,-49.74 -11.38,-12.43 -26.44,-18.65 -45.18,-18.65 -21.21,0 -38.19,6 -50.93,17.99 -12.75,12 -20.09,28.89 -22.03,50.67l135.6 -0.27z"/>
  <path class="fil1" d="M12509.53 1061.29c-4.27,-2.47 -8.93,-4.27 -13.95,-5.42 -5.03,-1.19 -10.56,-1.79 -16.61,-1.79 -21.52,0 -38.03,6.99 -49.54,20.97 -11.51,13.98 -17.26,34.07 -17.26,60.26l0 121.97 -38.23 0 0 -231.51 38.23 0 0 35.99c8.02,-14.07 18.43,-24.5 31.22,-31.29 12.83,-6.84 28.42,-10.25 46.76,-10.25 2.6,0 5.49,0.17 8.67,0.53 3.17,0.31 6.68,0.81 10.52,1.52l0.19 39.02z"/>
 </g>
</svg>
